<svg width="54" height="39" viewBox="0 0 54 39" fill="none" xmlns="http://www.w3.org/2000/svg">
<path d="M14.736 24.144C13.9787 24.144 13.2907 23.9947 12.672 23.696C12.064 23.3973 11.584 22.9867 11.232 22.464C10.8907 21.9307 10.72 21.3387 10.72 20.688C10.72 20.3467 10.8533 20.096 11.12 19.936C11.3973 19.776 11.7707 19.696 12.24 19.696C12.208 19.888 12.192 20.0907 12.192 20.304C12.192 21.0933 12.416 21.7067 12.864 22.144C13.312 22.5813 13.936 22.8 14.736 22.8C15.5467 22.8 16.176 22.576 16.624 22.128C17.072 21.6693 17.296 21.0347 17.296 20.224V14.128H15.36C14.592 14.128 14.208 13.6853 14.208 12.8H18.08C18.2827 12.8 18.4533 12.8693 18.592 13.008C18.7307 13.136 18.8 13.3013 18.8 13.504V20.224C18.8 20.9707 18.624 21.6427 18.272 22.24C17.9307 22.8373 17.4507 23.3067 16.832 23.648C16.2133 23.9787 15.5147 24.144 14.736 24.144Z" fill="black"/>
<path d="M24.336 21.144C23.6853 21.144 23.104 21.0213 22.592 20.776C22.08 20.52 21.68 20.1733 21.392 19.736C21.104 19.288 20.96 18.7867 20.96 18.232V15.864C20.96 15.2987 21.1093 14.7867 21.408 14.328C21.7173 13.8693 22.128 13.512 22.64 13.256C23.1627 12.9893 23.728 12.856 24.336 12.856C24.944 12.856 25.4987 12.984 26 13.24C26.512 13.496 26.912 13.848 27.2 14.296C27.4987 14.744 27.648 15.2507 27.648 15.816V16.84C27.648 17.0107 27.584 17.1547 27.456 17.272C27.328 17.3893 27.1733 17.448 26.992 17.448H22.32V18.168C22.32 18.712 22.4907 19.1493 22.832 19.48C23.184 19.8107 23.6853 19.976 24.336 19.976C24.9867 19.976 25.4827 19.832 25.824 19.544C26.1653 19.256 26.336 18.8667 26.336 18.376C26.656 18.3547 26.9227 18.4187 27.136 18.568C27.36 18.7067 27.472 18.9147 27.472 19.192C27.472 19.5333 27.3227 19.8533 27.024 20.152C26.736 20.4507 26.352 20.6907 25.872 20.872C25.392 21.0533 24.88 21.144 24.336 21.144ZM26.352 16.36V15.816C26.352 15.2827 26.1653 14.8507 25.792 14.52C25.4293 14.1787 24.944 14.008 24.336 14.008C23.728 14.008 23.2373 14.1787 22.864 14.52C22.5013 14.8507 22.32 15.2827 22.32 15.816V16.36H26.352Z" fill="black"/>
<path d="M33.336 32.144C32.6853 32.144 32.104 32.0213 31.592 31.776C31.08 31.52 30.68 31.1733 30.392 30.736C30.104 30.288 29.96 29.7867 29.96 29.232V26.864C29.96 26.2987 30.1093 25.7867 30.408 25.328C30.7173 24.8693 31.128 24.512 31.64 24.256C32.1627 23.9893 32.728 23.856 33.336 23.856C33.944 23.856 34.4987 23.984 35 24.24C35.512 24.496 35.912 24.848 36.2 25.296C36.4987 25.744 36.648 26.2507 36.648 26.816V27.84C36.648 28.0107 36.584 28.1547 36.456 28.272C36.328 28.3893 36.1733 28.448 35.992 28.448H31.32V29.168C31.32 29.712 31.4907 30.1493 31.832 30.48C32.184 30.8107 32.6853 30.976 33.336 30.976C33.9867 30.976 34.4827 30.832 34.824 30.544C35.1653 30.256 35.336 29.8667 35.336 29.376C35.656 29.3547 35.9227 29.4187 36.136 29.568C36.36 29.7067 36.472 29.9147 36.472 30.192C36.472 30.5333 36.3227 30.8533 36.024 31.152C35.736 31.4507 35.352 31.6907 34.872 31.872C34.392 32.0533 33.88 32.144 33.336 32.144ZM35.352 27.36V26.816C35.352 26.2827 35.1653 25.8507 34.792 25.52C34.4293 25.1787 33.944 25.008 33.336 25.008C32.728 25.008 32.2373 25.1787 31.864 25.52C31.5013 25.8507 31.32 26.2827 31.32 26.816V27.36H35.352Z" fill="black"/>
<path d="M32.776 21.144C31.8587 21.144 31.1173 20.8987 30.552 20.408C29.9973 19.9173 29.72 19.272 29.72 18.472C29.72 17.6613 30.0133 17.0107 30.6 16.52C31.1867 16.0187 31.96 15.768 32.92 15.768C33.944 15.768 34.7867 16.1307 35.448 16.856L35.512 16.792C35.3947 16.664 35.2613 16.5307 35.112 16.392V15.72C35.112 15.176 34.9413 14.7547 34.6 14.456C34.2587 14.1573 33.7733 14.008 33.144 14.008C32.024 14.008 31.224 14.4507 30.744 15.336C30.5733 15.2507 30.4293 15.1387 30.312 15C30.2053 14.8507 30.152 14.7013 30.152 14.552C30.152 14.264 30.296 13.992 30.584 13.736C30.872 13.4693 31.2507 13.256 31.72 13.096C32.2 12.936 32.7013 12.856 33.224 12.856C34.2373 12.856 35.032 13.1067 35.608 13.608C36.1947 14.1093 36.488 14.8027 36.488 15.688V20.072C36.488 20.4453 36.3813 20.7173 36.168 20.888C35.9547 21.0587 35.6187 21.144 35.16 21.144V20.392C35.384 20.1573 35.5067 20.0187 35.528 19.976L35.464 19.912C34.7707 20.7333 33.8747 21.144 32.776 21.144ZM33.016 20.04C33.6773 20.04 34.1947 19.9013 34.568 19.624C34.952 19.3467 35.144 18.9627 35.144 18.472C35.144 17.9813 34.9573 17.592 34.584 17.304C34.2107 17.016 33.6987 16.872 33.048 16.872C32.44 16.872 31.96 17.016 31.608 17.304C31.2667 17.5813 31.096 17.9707 31.096 18.472C31.096 18.9733 31.2613 19.3627 31.592 19.64C31.9333 19.9067 32.408 20.04 33.016 20.04Z" fill="black"/>
<path d="M39.12 14.04C39.12 13.2507 39.568 12.856 40.464 12.856V13.88C40.368 13.976 40.256 14.12 40.128 14.312L40.192 14.376C40.512 13.928 40.928 13.5653 41.44 13.288C41.952 13 42.5067 12.856 43.104 12.856C43.968 12.856 44.6507 13.112 45.152 13.624C45.6533 14.136 45.904 14.7973 45.904 15.608V20.12C45.904 20.472 45.7867 20.7333 45.552 20.904C45.328 21.064 44.9813 21.144 44.512 21.144V15.752C44.512 15.24 44.368 14.8347 44.08 14.536C43.792 14.2373 43.3547 14.088 42.768 14.088C42.3733 14.088 42 14.1733 41.648 14.344C41.3067 14.504 41.0293 14.728 40.816 15.016C40.6133 15.2933 40.512 15.5973 40.512 15.928V20.12C40.512 20.472 40.3947 20.7333 40.16 20.904C39.936 21.064 39.5893 21.144 39.12 21.144V14.04Z" fill="black"/>
<path d="M24.048 32.144C23.1307 32.144 22.384 31.8933 21.808 31.392C21.2427 30.88 20.96 30.2027 20.96 29.36V26.624C20.96 26.08 21.0933 25.6 21.36 25.184C21.6267 24.7573 21.9947 24.432 22.464 24.208C22.944 23.9733 23.4933 23.856 24.112 23.856C24.6133 23.856 25.0773 23.9627 25.504 24.176C25.9307 24.3787 26.304 24.6507 26.624 24.992L26.672 24.912C26.5973 24.8053 26.4853 24.688 26.336 24.56V21.744C26.336 21.392 26.4533 21.1253 26.688 20.944C26.9227 20.752 27.2747 20.656 27.744 20.656V31.008C27.744 31.36 27.6373 31.6373 27.424 31.84C27.2213 32.0427 26.8907 32.144 26.432 32.144V31.248C26.5813 31.056 26.6827 30.9173 26.736 30.832L26.688 30.768C26.3467 31.1947 25.968 31.5307 25.552 31.776C25.136 32.0213 24.6347 32.144 24.048 32.144ZM24.352 30.912C24.9173 30.912 25.392 30.768 25.776 30.48C26.16 30.1813 26.352 29.8133 26.352 29.376V26.608C26.352 26.1813 26.1707 25.824 25.808 25.536C25.4453 25.2373 24.9547 25.088 24.336 25.088C23.7067 25.088 23.216 25.232 22.864 25.52C22.5227 25.7973 22.352 26.1867 22.352 26.688V29.296C22.352 29.8187 22.5227 30.2187 22.864 30.496C23.216 30.7733 23.712 30.912 24.352 30.912Z" fill="black"/>
<path d="M42.496 32.144C42.336 32.144 42.192 32.1013 42.064 32.016C41.936 31.9307 41.8453 31.824 41.792 31.696L38.72 23.968C38.784 23.936 38.8747 23.9093 38.992 23.888C39.1093 23.8667 39.216 23.856 39.312 23.856C39.5467 23.856 39.7547 23.9093 39.936 24.016C40.1173 24.1227 40.24 24.2773 40.304 24.48L42.416 30.224L42.192 30.864L42.272 30.896L44.672 24.48C44.736 24.2773 44.8587 24.1227 45.04 24.016C45.2213 23.9093 45.424 23.856 45.648 23.856C45.744 23.856 45.8507 23.8667 45.968 23.888C46.0853 23.9093 46.1813 23.936 46.256 23.968L43.184 31.696C43.1307 31.824 43.04 31.9307 42.912 32.016C42.7947 32.1013 42.656 32.144 42.496 32.144Z" fill="black"/>
</svg>
