<svg width="40" height="41" viewBox="0 0 40 41" fill="none" xmlns="http://www.w3.org/2000/svg">
<path fill-rule="evenodd" clip-rule="evenodd" d="M7.37497 24.0587C6.94142 25.1002 6.69921 26.2113 6.65997 27.3387C6.7198 28.0341 6.95694 28.7024 7.34872 29.28C8.08593 30.1335 8.9725 30.8455 9.96497 31.3812L16.375 35.6487C17.1637 36.2765 18.0506 36.7697 19 37.1087C19.6164 37.2555 20.2586 37.2555 20.875 37.1087C21.8307 36.7739 22.7247 36.284 23.5212 35.6587L30 31.3887C31.0026 30.8515 31.8992 30.1365 32.6462 29.2787C33.0408 28.6981 33.2777 28.0248 33.3337 27.325C33.2912 26.1884 33.0425 25.069 32.6 24.0212L26.9337 6.18874C26.8072 5.61121 26.5787 5.06091 26.2587 4.56374C26.0257 4.28061 25.7246 4.06126 25.3837 3.92624C24.8141 3.7718 24.2215 3.72016 23.6337 3.77374H16.2562C15.6682 3.72029 15.0754 3.77322 14.5062 3.92999C14.1645 4.06474 13.8632 4.28513 13.6312 4.56999C13.3127 5.06719 13.0862 5.61761 12.9625 6.19499L7.37497 24.0587ZM23.925 7.55874C24.1885 7.97774 24.3752 8.44041 24.4762 8.92499L29.3412 24.905C27.5139 23.9572 25.5525 23.2941 23.525 22.9387L20.3637 12.2387C20.3443 12.1755 20.31 12.1179 20.2637 12.0707C20.2174 12.0235 20.1605 11.988 20.0977 11.9674C20.0349 11.9467 19.9681 11.9413 19.9028 11.9518C19.8375 11.9623 19.7757 11.9882 19.7225 12.0275C19.6511 12.0797 19.5988 12.1539 19.5737 12.2387L16.4487 22.935C14.4116 23.2896 12.4411 23.9553 10.6062 24.9087L15.4912 8.92874C15.5912 8.44326 15.7784 7.97994 16.0437 7.56124C16.2372 7.32379 16.4874 7.13893 16.7712 7.02374C17.2494 6.89449 17.7469 6.85216 18.24 6.89874H21.7312C22.2248 6.85211 22.7227 6.89445 23.2012 7.02374C23.4859 7.13926 23.7366 7.32504 23.93 7.56374L23.925 7.55874ZM20.1587 26.825C21.6631 26.9121 23.1549 26.5071 24.4087 25.6712C24.5512 26.1199 24.6018 26.5927 24.5573 27.0614C24.5129 27.53 24.3743 27.9849 24.15 28.3987C23.6888 29.1826 23.0194 29.8234 22.2162 30.25C21.3737 30.785 20.6487 31.25 20.6487 32.4837C20.6477 32.8795 20.737 33.2703 20.91 33.6262C20.3418 33.3903 19.8563 32.9913 19.5148 32.4796C19.1733 31.9679 18.9911 31.3664 18.9912 30.7512V30.675C18.9912 29.8212 18.9912 28.77 17.7887 28.77C17.6211 28.7699 17.4551 28.8026 17.3 28.8662C16.9879 28.9955 16.7398 29.2431 16.61 29.555C16.5455 29.7099 16.512 29.8759 16.5112 30.0437C15.687 29.1436 15.2443 27.9588 15.2762 26.7387C15.2704 26.2107 15.3441 25.6848 15.495 25.1787C15.995 26.125 17.895 26.8287 20.1587 26.8287V26.825Z" fill="white"/>
</svg>
