<svg width="40" height="41" viewBox="0 0 40 41" fill="none" xmlns="http://www.w3.org/2000/svg">
<g clip-path="url(#clip0_8_10)">
<path d="M0 0.5H40V40.5H0V0.5ZM36.7233 30.96C36.4317 29.135 35.2433 27.6017 31.7183 26.1717C30.4917 25.5967 29.1283 25.1967 28.7233 24.2717C28.5717 23.7217 28.5483 23.4217 28.6467 23.0967C28.8967 22.02 30.1717 21.6967 31.1717 21.9967C31.8217 22.1967 32.4217 22.6967 32.7983 23.4967C34.5217 22.37 34.5217 22.37 35.7233 21.6217C35.2733 20.9217 35.05 20.62 34.7467 20.3217C33.6967 19.1467 32.2983 18.5467 30.0233 18.5983L28.8483 18.7467C27.7217 19.0217 26.6483 19.6217 25.9983 20.4217C24.0983 22.5733 24.6467 26.3233 26.9467 27.8733C29.2217 29.5733 32.5483 29.9467 32.9733 31.5483C33.3733 33.4983 31.5233 34.1233 29.6967 33.8983C28.345 33.5983 27.5967 32.9217 26.7717 31.6717L23.7217 33.4233C24.0717 34.2233 24.4717 34.5717 25.0717 35.2717C27.9717 38.1983 35.2217 38.0483 36.5233 33.5983C36.5717 33.4483 36.9233 32.4233 36.6467 30.8483L36.7233 30.96ZM21.7517 18.885H18.005C18.005 22.115 17.99 25.325 17.99 28.56C17.99 30.6133 18.095 32.4983 17.76 33.0783C17.21 34.2267 15.7933 34.08 15.15 33.8783C14.49 33.5517 14.155 33.1017 13.7667 32.4533C13.6617 32.2783 13.5833 32.1267 13.555 32.1267L10.5133 34.0017C11.0217 35.0517 11.7633 35.955 12.72 36.53C14.145 37.38 16.06 37.655 18.065 37.205C19.37 36.8283 20.495 36.0533 21.0833 34.8533C21.9333 33.3033 21.7533 31.4033 21.745 29.2767C21.765 25.8533 21.745 22.4283 21.745 18.9783L21.7517 18.885Z" fill="white"/>
</g>
<defs>
<clipPath id="clip0_8_10">
<rect width="40" height="40" fill="white" transform="translate(0 0.5)"/>
</clipPath>
</defs>
</svg>
