<svg width="40" height="40" viewBox="0 0 40 40" fill="none" xmlns="http://www.w3.org/2000/svg">
<path d="M35 2.5H4.99219C3.61719 2.5 2.5 3.63281 2.5 5.02344V34.9766C2.5 36.3672 3.61719 37.5 4.99219 37.5H35C36.375 37.5 37.5 36.3672 37.5 34.9766V5.02344C37.5 3.63281 36.375 2.5 35 2.5ZM13.0781 32.5H7.89062V15.7969H13.0859V32.5H13.0781ZM10.4844 13.5156C8.82031 13.5156 7.47656 12.1641 7.47656 10.5078C7.47656 8.85156 8.82031 7.5 10.4844 7.5C12.1406 7.5 13.4922 8.85156 13.4922 10.5078C13.4922 12.1719 12.1484 13.5156 10.4844 13.5156ZM32.5234 32.5H27.3359V24.375C27.3359 22.4375 27.2969 19.9453 24.6406 19.9453C21.9375 19.9453 21.5234 22.0547 21.5234 24.2344V32.5H16.3359V15.7969H21.3125V18.0781H21.3828C22.0781 16.7656 23.7734 15.3828 26.2969 15.3828C31.5469 15.3828 32.5234 18.8437 32.5234 23.3437V32.5Z" fill="black"/>
</svg>
