<svg width="40" height="41" viewBox="0 0 40 41" fill="none" xmlns="http://www.w3.org/2000/svg">
<g clip-path="url(#clip0_8_30)">
<path d="M18.9659 0.755415C19.5497 0.414862 20.2717 0.414862 20.8555 0.755415L36.3912 9.81792C36.9672 10.1539 37.3215 10.7706 37.3215 11.4375V29.5625C37.3215 30.2295 36.9672 30.846 36.3912 31.182L20.8555 40.2445C20.2717 40.5853 19.5497 40.5853 18.9659 40.2445L15.082 37.979C14.1875 37.4573 13.8854 36.309 14.4072 35.4145C14.929 34.5203 16.0771 34.218 16.9715 34.7397L19.9107 36.4542L33.5715 28.4855V12.5144L19.9107 4.5457L6.25 12.5144V28.4855L9.042 30.1143C9.90245 30.3903 10.9653 30.4578 11.7144 30.1268C12.0619 29.9733 12.3758 29.7233 12.6242 29.2768C12.8856 28.8068 13.125 28.0245 13.125 26.75V13.625C13.125 12.5895 13.9645 11.75 15 11.75C16.0355 11.75 16.875 12.5895 16.875 13.625V26.75C16.875 28.4755 16.5526 29.929 15.9012 31.0997C15.2368 32.294 14.2866 33.09 13.2298 33.557C11.214 34.4475 8.98807 34.0825 7.62497 33.5927C7.51715 33.554 7.41312 33.5055 7.31417 33.4478L3.43025 31.182C2.8542 30.846 2.5 30.2295 2.5 29.5625V11.4375C2.5 10.7706 2.8542 10.1539 3.43025 9.81792L18.9659 0.755415ZM20.6164 13.7081C21.6085 12.527 23.1579 11.75 25.2605 11.75C27.2117 11.75 28.698 12.4189 29.7037 13.4829C30.415 14.2354 30.3817 15.4221 29.629 16.1334C28.8765 16.8448 27.6897 16.8114 26.9785 16.0588C26.7595 15.8272 26.3005 15.5 25.2605 15.5C24.1545 15.5 23.6988 15.8688 23.4878 16.1201C23.2154 16.4444 23.125 16.8546 23.125 17.0625C23.125 17.2704 23.2154 17.6806 23.4878 18.0049C23.6988 18.2562 24.1545 18.625 25.2605 18.625C25.4455 18.625 25.6242 18.6518 25.7932 18.7018C27.342 18.925 28.5222 19.6196 29.3315 20.5831C30.2622 21.6911 30.573 22.9996 30.573 23.9375C30.573 24.8754 30.2622 26.184 29.3315 27.292C28.3395 28.473 26.79 29.25 24.6875 29.25C22.7362 29.25 21.2499 28.581 20.2442 27.5173C19.5329 26.7645 19.5663 25.5778 20.3189 24.8666C21.0714 24.1552 22.2581 24.1886 22.9695 24.9412C23.1884 25.1728 23.6475 25.5 24.6875 25.5C25.7935 25.5 26.2492 25.1312 26.4602 24.8799C26.7325 24.5556 26.823 24.1454 26.823 23.9375C26.823 23.7296 26.7325 23.3194 26.4602 22.9951C26.2492 22.7438 25.7935 22.375 24.6875 22.375C24.5024 22.375 24.3236 22.3482 24.1547 22.2982C22.6059 22.075 21.4257 21.3804 20.6164 20.4169C19.6857 19.3089 19.375 18.0004 19.375 17.0625C19.375 16.1246 19.6857 14.8161 20.6164 13.7081Z" fill="white"/>
</g>
<defs>
<clipPath id="clip0_8_30">
<rect width="40" height="40" fill="white" transform="translate(0 0.5)"/>
</clipPath>
</defs>
</svg>
