<svg width="40" height="41" viewBox="0 0 40 41" fill="none" xmlns="http://www.w3.org/2000/svg">
<g clip-path="url(#clip0_8_20)">
<path d="M20.0016 8.5C14.6683 8.5 11.335 11.1667 10.0016 16.5C12.0016 13.8333 14.335 12.8333 17.0016 13.5C18.5233 13.88 19.61 14.9833 20.815 16.2067C22.7766 18.1967 25.045 20.5 30.0016 20.5C35.335 20.5 38.6683 17.8333 40.0016 12.5C38.0016 15.1667 35.6683 16.1667 33.0016 15.5C31.48 15.12 30.3933 14.0167 29.1883 12.7933C27.2283 10.8033 24.96 8.5 20.0016 8.5ZM10.0016 20.5C4.66831 20.5 1.33498 23.1667 0.00164795 28.5C2.00165 25.8333 4.33498 24.8333 7.00165 25.5C8.52331 25.88 9.60998 26.9833 10.815 28.2067C12.7766 30.1967 15.045 32.5 20.0016 32.5C25.335 32.5 28.6683 29.8333 30.0016 24.5C28.0016 27.1667 25.6683 28.1667 23.0016 27.5C21.48 27.12 20.3933 26.0167 19.1883 24.7933C17.2283 22.8033 14.96 20.5 10.0016 20.5Z" fill="white"/>
</g>
<defs>
<clipPath id="clip0_8_20">
<rect width="40" height="40" fill="white" transform="translate(0 0.5)"/>
</clipPath>
</defs>
</svg>
