<svg width="40" height="41" viewBox="0 0 40 41" fill="none" xmlns="http://www.w3.org/2000/svg">
<g clip-path="url(#clip0_8_15)">
<path d="M1.875 0.5C0.836667 0.5 0 1.33667 0 2.375V38.625C0 39.6633 0.836667 40.5 1.875 40.5H38.125C39.1633 40.5 40 39.6633 40 38.625V2.375C40 1.33667 39.1633 0.5 38.125 0.5H1.875ZM30.8133 16.75C31.8333 16.75 32.7367 16.8117 33.525 16.935C34.2685 17.0464 34.9982 17.2364 35.7017 17.5017V21.5983C35.364 21.3648 35.0052 21.1634 34.63 20.9967C34.2431 20.8226 33.8436 20.6777 33.435 20.5633C32.661 20.3477 31.8618 20.2356 31.0583 20.23C30.5583 20.23 30.1033 20.2767 29.6933 20.3733C29.3279 20.4515 28.9774 20.5877 28.655 20.7767C28.3717 20.95 28.155 21.1583 28 21.4C27.8441 21.6436 27.763 21.9275 27.7667 22.2167C27.7667 22.5433 27.855 22.8383 28.0267 23.0983C28.2 23.3583 28.4467 23.605 28.765 23.8383C29.0833 24.0717 29.47 24.2983 29.925 24.5217C30.38 24.7467 30.895 24.9783 31.4683 25.215C32.2517 25.5433 32.955 25.8933 33.5783 26.2617C34.2017 26.6317 34.7367 27.05 35.1833 27.5167C35.63 27.9817 35.97 28.5133 36.2067 29.1117C36.4433 29.71 36.5633 30.405 36.5633 31.2C36.5633 32.295 36.355 33.2167 35.9417 33.96C35.5378 34.6931 34.9583 35.3145 34.255 35.7683C33.497 36.249 32.6568 36.5857 31.7767 36.7617C30.8333 36.9617 29.8383 37.0617 28.7933 37.0617C27.7648 37.0662 26.7382 36.9747 25.7267 36.7883C24.8515 36.637 24.0028 36.3602 23.2067 35.9667V31.5833C24.713 32.8652 26.6238 33.5736 28.6017 33.5833C29.1567 33.5833 29.6417 33.5333 30.055 33.4333C30.47 33.3333 30.815 33.1933 31.0933 33.0167C31.37 32.8367 31.5767 32.6267 31.715 32.3833C31.8679 32.1 31.9374 31.7792 31.9156 31.458C31.8938 31.1368 31.7815 30.8284 31.5917 30.5683C31.344 30.2406 31.0412 29.9586 30.6967 29.735C30.2694 29.4518 29.8196 29.2043 29.3517 28.995C28.7971 28.7417 28.2375 28.4995 27.6733 28.2683C26.1433 27.63 25.0033 26.8483 24.2517 25.9267C23.5017 25.005 23.125 23.89 23.125 22.585C23.125 21.5617 23.33 20.6833 23.74 19.9483C24.15 19.2133 24.7067 18.6083 25.4133 18.1333C26.1608 17.6402 26.9906 17.2852 27.8633 17.085C28.83 16.8571 29.8202 16.7446 30.8133 16.75ZM5.625 17.0633H21.5633V20.6733H15.8433V36.75H11.315V20.6733H5.625V17.0633Z" fill="white"/>
</g>
<defs>
<clipPath id="clip0_8_15">
<rect width="40" height="40" fill="white" transform="translate(0 0.5)"/>
</clipPath>
</defs>
</svg>
